<svg id="Layer_1" data-name="Layer 1" xmlns="http://www.w3.org/2000/svg" viewBox="0 0 145.75 130.76"><defs><style>.cls-1{font-size:6.82px;font-family:Metropolis-Bold, Metropolis;font-weight:700;letter-spacing:0.15em;}.cls-1,.cls-2{fill:#6d6e70;}.cls-2{font-size:21.91px;font-family:Metropolis-ExtraBold, Metropolis;font-weight:800;letter-spacing:-0.08em;}.cls-3{letter-spacing:0em;}.cls-4{letter-spacing:-0.01em;}.cls-5{fill:#00a9e1;}</style></defs><text class="cls-1" transform="translate(25.4 115.96)">QUALITY FITS THE BILL</text><text class="cls-2" transform="translate(16.33 102.72)">V<tspan class="cls-3" x="14.66" y="0">AST</tspan><tspan class="cls-4" x="59.49" y="0">C</tspan><tspan class="cls-3" x="74.63" y="0">OM</tspan></text><path class="cls-5" d="M31.52,74.78c0,1.42.94,2.77,2.62,4-6-2.21-9.56-5-9.56-8,0-5.93,13.79-10.94,32.73-12.58l2.25,5.86C43.35,65.44,31.52,69.72,31.52,74.78Z"/><path class="cls-5" d="M117,70.79c0,3-3.57,5.79-9.56,8,1.68-1.24,2.62-2.59,2.62-4,0-5.08-11.9-9.37-28.2-10.73l2.25-5.86C103.1,59.82,117,64.84,117,70.79Z"/><path class="cls-5" d="M20.82,70c0,1.83,1.19,3.59,3.33,5.2C16.53,72.32,12,68.72,12,64.82c0-7.69,17.51-14.18,41.58-16.3l2.93,7.6C35.87,57.89,20.82,63.43,20.82,70Z"/><polygon class="cls-5" points="70.32 47.78 71.13 47.78 70.73 48.84 70.32 47.78"/><path class="cls-5" d="M129.55,64.82c0,3.9-4.55,7.5-12.17,10.37,2.15-1.61,3.33-3.37,3.33-5.2,0-6.57-15.12-12.13-35.83-13.89l2.92-7.6C112,50.62,129.55,57.12,129.55,64.82Z"/><polygon class="cls-5" points="98.23 15.93 85.77 48.34 82.85 55.94 82.05 58.03 79.79 63.9 78.51 67.24 62.87 67.24 61.59 63.91 59.33 58.05 58.53 55.95 55.61 48.35 43.15 15.93 58.04 15.93 70.32 47.78 70.73 48.84 71.13 47.78 83.33 15.93 98.23 15.93"/></svg>